<?xml version="1.0" encoding="UTF-8" standalone="no"?>
<svg
   height="128"
   width="128"
   version="1.1"
   id="svg24"
   sodipodi:docname="icon.svg"
   inkscape:version="1.2.2 (b0a8486, 2022-12-01)"
   inkscape:export-filename="../../Demo/image.png"
   inkscape:export-xdpi="96"
   inkscape:export-ydpi="96"
   xmlns:inkscape="http://www.inkscape.org/namespaces/inkscape"
   xmlns:sodipodi="http://sodipodi.sourceforge.net/DTD/sodipodi-0.dtd"
   xmlns="http://www.w3.org/2000/svg"
   xmlns:svg="http://www.w3.org/2000/svg">
  <defs
     id="defs28" />
  <sodipodi:namedview
     id="namedview26"
     pagecolor="#ffffff"
     bordercolor="#000000"
     borderopacity="0.25"
     inkscape:showpageshadow="2"
     inkscape:pageopacity="0.0"
     inkscape:pagecheckerboard="0"
     inkscape:deskcolor="#d1d1d1"
     showgrid="false"
     inkscape:zoom="4.695631"
     inkscape:cx="5.1111342"
     inkscape:cy="63.143803"
     inkscape:window-width="1848"
     inkscape:window-height="1016"
     inkscape:window-x="72"
     inkscape:window-y="27"
     inkscape:window-maximized="1"
     inkscape:current-layer="svg24" />
  <g
     transform="scale(.101) translate(122 122)"
     id="g22">
    <g
       fill="#fff"
       id="g14">
      <path
         d="M105 673v33q407 354 814 0v-33z"
         id="path4" />
      <path
         fill="#478cbf"
         d="m105 673 152 14q12 1 15 14l4 67 132 10 8-61q2-11 15-15h162q13 4 15 15l8 61 132-10 4-67q3-13 15-14l152-14V427q30-39 56-81-35-59-83-108-43 20-82 47-40-37-88-64 7-51 8-102-59-28-123-42-26 43-46 89-49-7-98 0-20-46-46-89-64 14-123 42 1 51 8 102-48 27-88 64-39-27-82-47-48 49-83 108 26 42 56 81zm0 33v39c0 276 813 276 813 0v-39l-134 12-5 69q-2 10-14 13l-162 11q-12 0-16-11l-10-65H447l-10 65q-4 11-16 11l-162-11q-12-3-14-13l-5-69z"
         id="path6" />
      <path
         d="M483 600c3 34 55 34 58 0v-86c-3-34-55-34-58 0z"
         id="path8" />
      <circle
         cx="725"
         cy="526"
         r="90"
         id="circle10" />
      <circle
         cx="299"
         cy="526"
         r="90"
         id="circle12" />
    </g>
    <g
       fill="#414042"
       id="g20">
      <circle
         cx="307"
         cy="532"
         r="60"
         id="circle16" />
      <circle
         cx="717"
         cy="532"
         r="60"
         id="circle18" />
    </g>
  </g>
  <text
     xml:space="preserve"
     style="font-style:normal;font-variant:normal;font-weight:normal;font-stretch:normal;font-size:53.65px;font-family:AnjaliOldLipi;-inkscape-font-specification:AnjaliOldLipi;fill:#414042;fill-opacity:1;stroke-width:0.670624"
     x="9.2451096"
     y="-83.607094"
     id="text417"
     transform="rotate(90)"><tspan
       sodipodi:role="line"
       id="tspan415"
       x="9.2451096"
       y="-83.607094"
       style="font-style:normal;font-variant:normal;font-weight:normal;font-stretch:normal;font-family:AnjaliOldLipi;-inkscape-font-specification:AnjaliOldLipi;fill:#414042;fill-opacity:1;stroke-width:0.670624">CV</tspan></text>
</svg>
